{
	"asset":{
		"generator":"Khronos glTF Blender I/O v3.6.27",
		"version":"2.0"
	},
	"extensionsUsed":[
		"KHR_materials_specular",
		"KHR_materials_ior"
	],
	"scene":0,
	"scenes":[
		{
			"name":"Scene",
			"nodes":[
				0,
				2
			]
		}
	],
	"nodes":[
		{
			"mesh":0,
			"name":"Plane"
		},
		{
			"mesh":1,
			"name":"TQ_ARD-node",
			"translation":[
				0,
				1.0123600986844394e-05,
				-134.09115600585938
			]
		},
		{
			"children":[
				1
			],
			"name":"DesignTransform1",
			"rotation":[
				0.7071068286895752,
				0,
				0,
				0.7071068286895752
			],
			"scale":[
				0.0010000000474974513,
				0.0010000000474974513,
				0.0010000000474974513
			]
		}
	],
	"materials":[
		{
			"doubleSided":true,
			"extensions":{
				"KHR_materials_specular":{
					"specularColorFactor":[
						0,
						0,
						0
					]
				},
				"KHR_materials_ior":{
					"ior":0
				}
			},
			"name":"TQ_ARD_front",
			"pbrMetallicRoughness":{
				"baseColorFactor":[
					0.800000011920929,
					0.800000011920929,
					0.800000011920929,
					1
				],
				"metallicFactor":0,
				"roughnessFactor":0.5
			}
		},
		{
			"doubleSided":true,
			"extensions":{
				"KHR_materials_specular":{
					"specularColorFactor":[
						0,
						0,
						0
					]
				},
				"KHR_materials_ior":{
					"ior":0
				}
			},
			"name":"TQ_ARD_back",
			"pbrMetallicRoughness":{
				"baseColorFactor":[
					0.996078372001648,
					0.9019607901573181,
					0.6627451181411743,
					1
				],
				"metallicFactor":0,
				"roughnessFactor":0.5
			}
		},
		{
			"doubleSided":true,
			"extensions":{
				"KHR_materials_specular":{
					"specularColorFactor":[
						0,
						0,
						0
					]
				},
				"KHR_materials_ior":{
					"ior":0
				}
			},
			"name":"TQ_ARD_edge",
			"pbrMetallicRoughness":{
				"baseColorTexture":{
					"index":0
				},
				"metallicFactor":0,
				"roughnessFactor":0.5
			}
		}
	],
	"meshes":[
		{
			"name":"Plane",
			"primitives":[
				{
					"attributes":{
						"POSITION":0,
						"NORMAL":1,
						"TEXCOORD_0":2
					},
					"indices":3
				}
			]
		},
		{
			"name":"TQ_ARD-geom",
			"primitives":[
				{
					"attributes":{
						"POSITION":4,
						"NORMAL":5,
						"TEXCOORD_0":6
					},
					"indices":7,
					"material":0
				},
				{
					"attributes":{
						"POSITION":8,
						"NORMAL":9,
						"TEXCOORD_0":10
					},
					"indices":11,
					"material":1
				},
				{
					"attributes":{
						"POSITION":12,
						"NORMAL":13,
						"TEXCOORD_0":14
					},
					"indices":15,
					"material":2
				}
			]
		}
	],
	"textures":[
		{
			"sampler":0,
			"source":0
		}
	],
	"images":[
		{
			"bufferView":16,
			"mimeType":"image/png",
			"name":"TQ_ARD-I1"
		}
	],
	"accessors":[
		{
			"bufferView":0,
			"componentType":5126,
			"count":4,
			"max":[
				1,
				0,
				1
			],
			"min":[
				-1,
				0,
				-1
			],
			"type":"VEC3"
		},
		{
			"bufferView":1,
			"componentType":5126,
			"count":4,
			"type":"VEC3"
		},
		{
			"bufferView":2,
			"componentType":5126,
			"count":4,
			"type":"VEC2"
		},
		{
			"bufferView":3,
			"componentType":5123,
			"count":6,
			"type":"SCALAR"
		},
		{
			"bufferView":4,
			"componentType":5126,
			"count":2556,
			"max":[
				165.50027465820312,
				197.7310333251953,
				130.24911499023438
			],
			"min":[
				-223.5888671875,
				-196.4451904296875,
				-150.7526092529297
			],
			"type":"VEC3"
		},
		{
			"bufferView":5,
			"componentType":5126,
			"count":2556,
			"type":"VEC3"
		},
		{
			"bufferView":6,
			"componentType":5126,
			"count":2556,
			"type":"VEC2"
		},
		{
			"bufferView":7,
			"componentType":5123,
			"count":6366,
			"type":"SCALAR"
		},
		{
			"bufferView":8,
			"componentType":5126,
			"count":2369,
			"max":[
				163.44781494140625,
				197.1418914794922,
				130.24911499023438
			],
			"min":[
				-223.5888671875,
				-195.8560791015625,
				-150.7526092529297
			],
			"type":"VEC3"
		},
		{
			"bufferView":9,
			"componentType":5126,
			"count":2369,
			"type":"VEC3"
		},
		{
			"bufferView":10,
			"componentType":5126,
			"count":2369,
			"type":"VEC2"
		},
		{
			"bufferView":11,
			"componentType":5123,
			"count":6366,
			"type":"SCALAR"
		},
		{
			"bufferView":12,
			"componentType":5126,
			"count":4368,
			"max":[
				165.50027465820312,
				197.7310333251953,
				130.24911499023438
			],
			"min":[
				-223.5888671875,
				-196.4451904296875,
				-150.7526092529297
			],
			"type":"VEC3"
		},
		{
			"bufferView":13,
			"componentType":5126,
			"count":4368,
			"type":"VEC3"
		},
		{
			"bufferView":14,
			"componentType":5126,
			"count":4368,
			"type":"VEC2"
		},
		{
			"bufferView":15,
			"componentType":5123,
			"count":8322,
			"type":"SCALAR"
		}
	],
	"bufferViews":[
		{
			"buffer":0,
			"byteLength":48,
			"byteOffset":0,
			"target":34962
		},
		{
			"buffer":0,
			"byteLength":48,
			"byteOffset":48,
			"target":34962
		},
		{
			"buffer":0,
			"byteLength":32,
			"byteOffset":96,
			"target":34962
		},
		{
			"buffer":0,
			"byteLength":12,
			"byteOffset":128,
			"target":34963
		},
		{
			"buffer":0,
			"byteLength":30672,
			"byteOffset":140,
			"target":34962
		},
		{
			"buffer":0,
			"byteLength":30672,
			"byteOffset":30812,
			"target":34962
		},
		{
			"buffer":0,
			"byteLength":20448,
			"byteOffset":61484,
			"target":34962
		},
		{
			"buffer":0,
			"byteLength":12732,
			"byteOffset":81932,
			"target":34963
		},
		{
			"buffer":0,
			"byteLength":28428,
			"byteOffset":94664,
			"target":34962
		},
		{
			"buffer":0,
			"byteLength":28428,
			"byteOffset":123092,
			"target":34962
		},
		{
			"buffer":0,
			"byteLength":18952,
			"byteOffset":151520,
			"target":34962
		},
		{
			"buffer":0,
			"byteLength":12732,
			"byteOffset":170472,
			"target":34963
		},
		{
			"buffer":0,
			"byteLength":52416,
			"byteOffset":183204,
			"target":34962
		},
		{
			"buffer":0,
			"byteLength":52416,
			"byteOffset":235620,
			"target":34962
		},
		{
			"buffer":0,
			"byteLength":34944,
			"byteOffset":288036,
			"target":34962
		},
		{
			"buffer":0,
			"byteLength":16644,
			"byteOffset":322980,
			"target":34963
		},
		{
			"buffer":0,
			"byteLength":767,
			"byteOffset":339624
		}
	],
	"samplers":[
		{
			"magFilter":9729,
			"minFilter":9987
		}
	],
	"buffers":[
		{
			"byteLength":340392,
			"uri":"data:application/octet-stream;base64,"
		}
	]
}
